<mxfile host="Electron" agent="Mozilla/5.0 (X11; Linux x86_64) AppleWebKit/537.36 (KHTML, like Gecko) draw.io/24.7.17 Chrome/128.0.6613.36 Electron/32.0.1 Safari/537.36" version="24.7.17">
  <diagram name="Страница — 1" id="D-fyG02rWzdI82R4gRCE">
    <mxGraphModel dx="1311" dy="913" grid="1" gridSize="10" guides="1" tooltips="1" connect="1" arrows="1" fold="1" page="1" pageScale="1" pageWidth="827" pageHeight="1169" math="0" shadow="0">
      <root>
        <mxCell id="0" />
        <mxCell id="1" parent="0" />
        <mxCell id="W64DsC13ZActUKg09C_t-18" value="" style="rounded=0;whiteSpace=wrap;html=1;" vertex="1" parent="1">
          <mxGeometry x="40" y="40" width="760" height="480" as="geometry" />
        </mxCell>
        <mxCell id="W64DsC13ZActUKg09C_t-10" style="rounded=0;orthogonalLoop=1;jettySize=auto;html=1;strokeWidth=2;endArrow=none;endFill=0;" edge="1" parent="1" source="W64DsC13ZActUKg09C_t-1" target="W64DsC13ZActUKg09C_t-3">
          <mxGeometry relative="1" as="geometry" />
        </mxCell>
        <mxCell id="W64DsC13ZActUKg09C_t-16" style="rounded=0;orthogonalLoop=1;jettySize=auto;html=1;strokeWidth=2;endArrow=none;endFill=0;" edge="1" parent="1" source="W64DsC13ZActUKg09C_t-1" target="W64DsC13ZActUKg09C_t-2">
          <mxGeometry relative="1" as="geometry" />
        </mxCell>
        <mxCell id="W64DsC13ZActUKg09C_t-17" style="rounded=0;orthogonalLoop=1;jettySize=auto;html=1;endArrow=none;endFill=0;strokeWidth=2;" edge="1" parent="1" source="W64DsC13ZActUKg09C_t-1" target="W64DsC13ZActUKg09C_t-6">
          <mxGeometry relative="1" as="geometry" />
        </mxCell>
        <mxCell id="W64DsC13ZActUKg09C_t-1" value="1" style="ellipse;whiteSpace=wrap;html=1;aspect=fixed;perimeterSpacing=0;strokeWidth=3;fontSize=30;" vertex="1" parent="1">
          <mxGeometry x="200" y="200" width="80" height="80" as="geometry" />
        </mxCell>
        <mxCell id="W64DsC13ZActUKg09C_t-12" style="edgeStyle=orthogonalEdgeStyle;rounded=0;orthogonalLoop=1;jettySize=auto;html=1;strokeWidth=2;endArrow=none;endFill=0;" edge="1" parent="1" source="W64DsC13ZActUKg09C_t-2" target="W64DsC13ZActUKg09C_t-4">
          <mxGeometry relative="1" as="geometry" />
        </mxCell>
        <mxCell id="W64DsC13ZActUKg09C_t-2" value="2" style="ellipse;whiteSpace=wrap;html=1;aspect=fixed;perimeterSpacing=0;strokeWidth=3;fontSize=30;" vertex="1" parent="1">
          <mxGeometry x="440" y="400" width="80" height="80" as="geometry" />
        </mxCell>
        <mxCell id="W64DsC13ZActUKg09C_t-11" style="edgeStyle=orthogonalEdgeStyle;rounded=0;orthogonalLoop=1;jettySize=auto;html=1;strokeWidth=2;endArrow=none;endFill=0;" edge="1" parent="1" source="W64DsC13ZActUKg09C_t-3" target="W64DsC13ZActUKg09C_t-2">
          <mxGeometry relative="1" as="geometry" />
        </mxCell>
        <mxCell id="W64DsC13ZActUKg09C_t-3" value="3" style="ellipse;whiteSpace=wrap;html=1;aspect=fixed;perimeterSpacing=0;strokeWidth=3;fontSize=30;" vertex="1" parent="1">
          <mxGeometry x="200" y="400" width="80" height="80" as="geometry" />
        </mxCell>
        <mxCell id="W64DsC13ZActUKg09C_t-13" style="rounded=0;orthogonalLoop=1;jettySize=auto;html=1;strokeWidth=2;endArrow=none;endFill=0;" edge="1" parent="1" source="W64DsC13ZActUKg09C_t-4" target="W64DsC13ZActUKg09C_t-6">
          <mxGeometry relative="1" as="geometry" />
        </mxCell>
        <mxCell id="W64DsC13ZActUKg09C_t-4" value="4" style="ellipse;whiteSpace=wrap;html=1;aspect=fixed;perimeterSpacing=0;strokeWidth=3;fontSize=30;" vertex="1" parent="1">
          <mxGeometry x="440" y="200" width="80" height="80" as="geometry" />
        </mxCell>
        <mxCell id="W64DsC13ZActUKg09C_t-15" style="rounded=0;orthogonalLoop=1;jettySize=auto;html=1;strokeWidth=2;endArrow=none;endFill=0;" edge="1" parent="1" source="W64DsC13ZActUKg09C_t-5" target="W64DsC13ZActUKg09C_t-6">
          <mxGeometry relative="1" as="geometry" />
        </mxCell>
        <mxCell id="W64DsC13ZActUKg09C_t-5" value="6" style="ellipse;whiteSpace=wrap;html=1;aspect=fixed;perimeterSpacing=0;strokeWidth=3;fontSize=30;" vertex="1" parent="1">
          <mxGeometry x="80" y="80" width="80" height="80" as="geometry" />
        </mxCell>
        <mxCell id="W64DsC13ZActUKg09C_t-6" value="5" style="ellipse;whiteSpace=wrap;html=1;aspect=fixed;perimeterSpacing=0;strokeWidth=3;fontSize=30;" vertex="1" parent="1">
          <mxGeometry x="320" y="80" width="80" height="80" as="geometry" />
        </mxCell>
        <mxCell id="W64DsC13ZActUKg09C_t-9" style="rounded=0;orthogonalLoop=1;jettySize=auto;html=1;strokeWidth=2;endArrow=none;endFill=0;" edge="1" parent="1" source="W64DsC13ZActUKg09C_t-7" target="W64DsC13ZActUKg09C_t-5">
          <mxGeometry relative="1" as="geometry">
            <mxPoint x="80" y="170" as="targetPoint" />
          </mxGeometry>
        </mxCell>
        <mxCell id="W64DsC13ZActUKg09C_t-7" value="7" style="ellipse;whiteSpace=wrap;html=1;aspect=fixed;perimeterSpacing=0;strokeWidth=3;fontSize=30;" vertex="1" parent="1">
          <mxGeometry x="80" y="320" width="80" height="80" as="geometry" />
        </mxCell>
        <mxCell id="W64DsC13ZActUKg09C_t-8" style="rounded=0;orthogonalLoop=1;jettySize=auto;html=1;strokeWidth=2;endArrow=none;endFill=0;" edge="1" parent="1" source="W64DsC13ZActUKg09C_t-7" target="W64DsC13ZActUKg09C_t-1">
          <mxGeometry relative="1" as="geometry" />
        </mxCell>
        <mxCell id="W64DsC13ZActUKg09C_t-19" value="1 | 2 3 5 7&lt;div&gt;2 | 1 3 4 0&lt;/div&gt;&lt;div&gt;3 | 1 2 0 0&lt;/div&gt;&lt;div&gt;4 | 2 5 0 0&lt;/div&gt;&lt;div&gt;5 | 1 4 6 0&lt;/div&gt;&lt;div&gt;6 | 5 7 0 0&lt;/div&gt;&lt;div&gt;7 | 1 6 0 0&amp;nbsp;&lt;/div&gt;" style="text;html=1;align=left;verticalAlign=middle;whiteSpace=wrap;rounded=0;fontFamily=Courier New;fontSize=20;" vertex="1" parent="1">
          <mxGeometry x="610" y="100" width="150" height="180" as="geometry" />
        </mxCell>
        <mxCell id="W64DsC13ZActUKg09C_t-20" value="" style="rounded=0;whiteSpace=wrap;html=1;" vertex="1" parent="1">
          <mxGeometry x="40" y="560" width="760" height="480" as="geometry" />
        </mxCell>
        <mxCell id="W64DsC13ZActUKg09C_t-21" value="2" style="rounded=0;orthogonalLoop=1;jettySize=auto;html=1;strokeWidth=2;endArrow=none;endFill=0;fontSize=20;verticalAlign=middle;labelPosition=left;verticalLabelPosition=middle;align=right;spacingRight=4;" edge="1" source="W64DsC13ZActUKg09C_t-24" target="W64DsC13ZActUKg09C_t-28" parent="1">
          <mxGeometry relative="1" as="geometry" />
        </mxCell>
        <mxCell id="W64DsC13ZActUKg09C_t-22" value="2" style="rounded=0;orthogonalLoop=1;jettySize=auto;html=1;strokeWidth=2;endArrow=none;endFill=0;fontSize=20;verticalAlign=bottom;labelBackgroundColor=none;" edge="1" source="W64DsC13ZActUKg09C_t-24" target="W64DsC13ZActUKg09C_t-26" parent="1">
          <mxGeometry relative="1" as="geometry" />
        </mxCell>
        <mxCell id="W64DsC13ZActUKg09C_t-23" value="1" style="rounded=0;orthogonalLoop=1;jettySize=auto;html=1;endArrow=none;endFill=0;strokeWidth=2;verticalAlign=bottom;fontSize=20;labelBackgroundColor=none;spacingBottom=4;" edge="1" source="W64DsC13ZActUKg09C_t-24" target="W64DsC13ZActUKg09C_t-33" parent="1">
          <mxGeometry relative="1" as="geometry" />
        </mxCell>
        <mxCell id="W64DsC13ZActUKg09C_t-24" value="1" style="ellipse;whiteSpace=wrap;html=1;aspect=fixed;perimeterSpacing=0;strokeWidth=3;fontSize=30;" vertex="1" parent="1">
          <mxGeometry x="200" y="720" width="80" height="80" as="geometry" />
        </mxCell>
        <mxCell id="W64DsC13ZActUKg09C_t-25" value="3" style="edgeStyle=orthogonalEdgeStyle;rounded=0;orthogonalLoop=1;jettySize=auto;html=1;strokeWidth=2;endArrow=none;endFill=0;fontSize=20;verticalAlign=middle;labelPosition=right;verticalLabelPosition=middle;align=left;horizontal=1;spacingLeft=4;" edge="1" source="W64DsC13ZActUKg09C_t-26" target="W64DsC13ZActUKg09C_t-30" parent="1">
          <mxGeometry relative="1" as="geometry" />
        </mxCell>
        <mxCell id="W64DsC13ZActUKg09C_t-26" value="2" style="ellipse;whiteSpace=wrap;html=1;aspect=fixed;perimeterSpacing=0;strokeWidth=3;fontSize=30;" vertex="1" parent="1">
          <mxGeometry x="440" y="920" width="80" height="80" as="geometry" />
        </mxCell>
        <mxCell id="W64DsC13ZActUKg09C_t-27" value="3" style="edgeStyle=orthogonalEdgeStyle;rounded=0;orthogonalLoop=1;jettySize=auto;html=1;strokeWidth=2;endArrow=none;endFill=0;fontSize=20;verticalAlign=bottom;" edge="1" source="W64DsC13ZActUKg09C_t-28" target="W64DsC13ZActUKg09C_t-26" parent="1">
          <mxGeometry relative="1" as="geometry" />
        </mxCell>
        <mxCell id="W64DsC13ZActUKg09C_t-28" value="3" style="ellipse;whiteSpace=wrap;html=1;aspect=fixed;perimeterSpacing=0;strokeWidth=3;fontSize=30;" vertex="1" parent="1">
          <mxGeometry x="200" y="920" width="80" height="80" as="geometry" />
        </mxCell>
        <mxCell id="W64DsC13ZActUKg09C_t-29" value="2" style="rounded=0;orthogonalLoop=1;jettySize=auto;html=1;strokeWidth=2;endArrow=none;endFill=0;fontSize=20;verticalAlign=bottom;labelBackgroundColor=none;spacingBottom=4;" edge="1" source="W64DsC13ZActUKg09C_t-30" target="W64DsC13ZActUKg09C_t-33" parent="1">
          <mxGeometry relative="1" as="geometry" />
        </mxCell>
        <mxCell id="W64DsC13ZActUKg09C_t-30" value="4" style="ellipse;whiteSpace=wrap;html=1;aspect=fixed;perimeterSpacing=0;strokeWidth=3;fontSize=30;" vertex="1" parent="1">
          <mxGeometry x="440" y="720" width="80" height="80" as="geometry" />
        </mxCell>
        <mxCell id="W64DsC13ZActUKg09C_t-31" value="4" style="rounded=0;orthogonalLoop=1;jettySize=auto;html=1;strokeWidth=2;endArrow=none;endFill=0;fontSize=20;verticalAlign=bottom;labelBackgroundColor=none;" edge="1" source="W64DsC13ZActUKg09C_t-32" target="W64DsC13ZActUKg09C_t-33" parent="1">
          <mxGeometry relative="1" as="geometry" />
        </mxCell>
        <mxCell id="W64DsC13ZActUKg09C_t-32" value="6" style="ellipse;whiteSpace=wrap;html=1;aspect=fixed;perimeterSpacing=0;strokeWidth=3;fontSize=30;" vertex="1" parent="1">
          <mxGeometry x="80" y="600" width="80" height="80" as="geometry" />
        </mxCell>
        <mxCell id="W64DsC13ZActUKg09C_t-33" value="5" style="ellipse;whiteSpace=wrap;html=1;aspect=fixed;perimeterSpacing=0;strokeWidth=3;fontSize=30;" vertex="1" parent="1">
          <mxGeometry x="320" y="600" width="80" height="80" as="geometry" />
        </mxCell>
        <mxCell id="W64DsC13ZActUKg09C_t-34" value="2" style="rounded=0;orthogonalLoop=1;jettySize=auto;html=1;strokeWidth=2;endArrow=none;endFill=0;fontSize=20;verticalAlign=middle;labelPosition=left;verticalLabelPosition=middle;align=right;spacingRight=4;labelBackgroundColor=none;" edge="1" source="W64DsC13ZActUKg09C_t-35" target="W64DsC13ZActUKg09C_t-32" parent="1">
          <mxGeometry relative="1" as="geometry">
            <mxPoint x="80" y="690" as="targetPoint" />
          </mxGeometry>
        </mxCell>
        <mxCell id="W64DsC13ZActUKg09C_t-35" value="7" style="ellipse;whiteSpace=wrap;html=1;aspect=fixed;perimeterSpacing=0;strokeWidth=3;fontSize=30;" vertex="1" parent="1">
          <mxGeometry x="80" y="840" width="80" height="80" as="geometry" />
        </mxCell>
        <mxCell id="W64DsC13ZActUKg09C_t-36" value="3" style="rounded=0;orthogonalLoop=1;jettySize=auto;html=1;strokeWidth=2;endArrow=none;endFill=0;fontSize=20;verticalAlign=bottom;spacingBottom=3;labelBackgroundColor=none;" edge="1" source="W64DsC13ZActUKg09C_t-35" target="W64DsC13ZActUKg09C_t-24" parent="1">
          <mxGeometry relative="1" as="geometry" />
        </mxCell>
        <mxCell id="W64DsC13ZActUKg09C_t-37" value="1 | 2 3 5 7&lt;div&gt;2 | 1 3 4 0&lt;/div&gt;&lt;div&gt;3 | 1 2 0 0&lt;/div&gt;&lt;div&gt;4 | 2 5 0 0&lt;/div&gt;&lt;div&gt;5 | 1 4 6 0&lt;/div&gt;&lt;div&gt;6 | 5 7 0 0&lt;/div&gt;&lt;div&gt;7 | 1 6 0 0&amp;nbsp;&lt;/div&gt;" style="text;html=1;align=left;verticalAlign=middle;whiteSpace=wrap;rounded=0;fontFamily=Courier New;fontSize=20;" vertex="1" parent="1">
          <mxGeometry x="590" y="610" width="150" height="180" as="geometry" />
        </mxCell>
        <mxCell id="W64DsC13ZActUKg09C_t-39" value="&lt;div style=&quot;font-size: 20px;&quot;&gt;0, 2, 2, 0, 1, 0, 3&lt;/div&gt;&lt;div style=&quot;font-size: 20px;&quot;&gt;2, 0, 3, 3, 0, 0, 0&lt;/div&gt;&lt;div style=&quot;font-size: 20px;&quot;&gt;2, 3, 0, 0, 0, 0, 0&lt;/div&gt;&lt;div style=&quot;font-size: 20px;&quot;&gt;0, 3, 0, 0, 2, 0, 0&lt;/div&gt;&lt;div style=&quot;font-size: 20px;&quot;&gt;1, 0, 0, 2, 0, 4, 0&lt;/div&gt;&lt;div style=&quot;font-size: 20px;&quot;&gt;0, 0, 0, 0, 4, 0, 2&lt;/div&gt;&lt;div style=&quot;font-size: 20px;&quot;&gt;3, 0, 0, 0, 0, 2, 0&lt;/div&gt;" style="text;html=1;align=center;verticalAlign=middle;resizable=0;points=[];autosize=1;strokeColor=none;fillColor=none;fontSize=20;" vertex="1" parent="1">
          <mxGeometry x="580" y="835" width="170" height="180" as="geometry" />
        </mxCell>
        <mxCell id="W64DsC13ZActUKg09C_t-40" value="" style="shape=curlyBracket;whiteSpace=wrap;html=1;rounded=1;labelPosition=left;verticalLabelPosition=middle;align=right;verticalAlign=middle;strokeWidth=3;" vertex="1" parent="1">
          <mxGeometry x="560" y="830" width="20" height="190" as="geometry" />
        </mxCell>
        <mxCell id="W64DsC13ZActUKg09C_t-41" value="" style="shape=curlyBracket;whiteSpace=wrap;html=1;rounded=1;flipH=1;labelPosition=right;verticalLabelPosition=middle;align=left;verticalAlign=middle;strokeWidth=3;" vertex="1" parent="1">
          <mxGeometry x="750" y="830" width="20" height="190" as="geometry" />
        </mxCell>
      </root>
    </mxGraphModel>
  </diagram>
</mxfile>
